<svg xmlns="http://www.w3.org/2000/svg" xmlns:xlink="http://www.w3.org/1999/xlink" width="176.231" height="176.231" xml:space="preserve"><circle style="fill:#fff;stroke:#000;stroke-width:0;stroke-linecap:butt;stroke-linejoin:round;stroke-miterlimit:4;stroke-dasharray:none;stroke-opacity:1" cx="88.115" cy="88.115" r="88.115"/><path d="M29.968 87.132c.001-16.113 6.723-30.694 17.604-41.263 10.883-10.566 25.914-17.104 42.529-17.104 16.615 0 31.648 6.538 42.53 17.104 10.882 10.568 17.603 25.149 17.604 41.263h1.767c0-16.61-6.938-31.653-18.141-42.53-11.201-10.878-26.676-17.604-43.76-17.604-17.082 0-32.559 6.726-43.76 17.604-11.203 10.877-18.141 25.92-18.139 42.53h1.766z"/><g transform="translate(-620.193 -460.685)"><defs><ellipse ry="50.562" rx="51.185" cy="548.169" cx="710.295" id="a"/></defs><clipPath id="b"><use overflow="visible" xlink:href="#a" style="overflow:visible" width="1190.55" height="841.89"/></clipPath><g clip-path="url(#b)"><path d="m683.713 504.25 25.503 43.848.68-.389-25.502-43.848"/><path d="m687.872 502.092 21.328 45.974.713-.326-21.328-45.973"/><path d="m691.827 500.459 17.36 47.576.74-.264-17.362-47.576"/><path d="M696.425 499.021 709.177 548l.76-.194-12.752-48.98"/><path d="m679.923 506.676 29.312 41.451.643-.447-29.311-41.451"/><path d="m676.38 509.404 32.875 38.75.601-.502-32.875-38.75"/><path d="m659.058 539.599 50.431 8.688.135-.767-50.432-8.69"/><path d="m660.064 534.972 49.388 13.307.207-.752-49.39-13.306"/><path d="m661.37 530.811 48.051 17.459.269-.733-48.049-17.457"/><path d="m663.251 526.33 46.135 21.925.34-.704-46.136-21.924"/><path d="m665.173 522.71 44.185 25.53.395-.673-44.186-25.53"/><path d="m667.688 518.815 41.641 29.406.455-.635-41.64-29.405"/><path d="m670.302 515.459 39 32.742.508-.596-38.998-32.742"/><path d="m673.146 512.369 36.132 35.81.555-.551-36.133-35.81"/><path d="m700.489 498.135 8.68 49.835.773-.133-8.679-49.833"/><path d="m704.824 497.375 4.341 50.562.782-.068-4.341-50.559"/><path d="M709.163 497.342v50.56h.785v-50.56"/><path d="m658.339 543.947 51.183 4.344.068-.775-51.185-4.346"/><path d="M658.372 548.293h51.184v-.779h-51.184"/><path d="m734.72 503.861-25.504 43.848.68.389 25.503-43.848"/><path d="M730.526 501.767 709.2 547.74l.713.326 21.327-45.974"/><path d="m726.547 500.195-17.36 47.576.74.264 17.358-47.576"/><path d="m721.928 498.826-12.751 48.98.76.194 12.751-48.979"/><path d="m738.546 506.229-29.311 41.451.643.447 29.31-41.451"/><path d="m742.132 508.902-32.877 38.75.601.502 32.877-38.75"/><path d="m759.921 538.83-50.432 8.69.135.767 50.432-8.688"/><path d="m758.844 534.221-49.392 13.306.207.752 49.39-13.307"/><path d="m757.472 530.08-48.051 17.457.269.733 48.053-17.459"/><path d="m755.522 525.627-46.136 21.924.34.704 46.136-21.925"/><path d="m753.544 522.037-44.186 25.53.395.673 44.186-25.53"/><path d="m750.97 518.181-41.641 29.405.455.635 41.643-29.406"/><path d="m748.302 514.863-39 32.742.508.596 39-32.742"/><path d="m745.413 511.818-36.135 35.81.555.551 36.135-35.81"/><path d="m717.851 498.004-8.682 49.833.773.133 8.682-49.835"/><path d="m713.505 497.31-4.34 50.559.782.068 4.34-50.562"/><path d="m760.708 543.17-51.186 4.346.068.775 51.184-4.344"/><path d="M760.741 547.514h-51.185v.779h51.185"/><path d="m684.394 591.945 25.502-43.847-.68-.389-25.503 43.848"/><path d="m688.585 594.04 21.328-45.974-.713-.326-21.328 45.975"/><path d="m692.565 595.612 17.362-47.577-.74-.264-17.36 47.576"/><path d="M697.185 596.98 709.937 548l-.76-.194-12.752 48.979"/><path d="m680.567 589.578 29.311-41.451-.643-.447-29.312 41.451"/><path d="m676.981 586.903 32.875-38.749-.601-.502-32.875 38.75"/><path d="m659.192 556.976 50.432-8.689-.135-.767-50.431 8.688"/><path d="m660.269 561.586 49.39-13.307-.207-.752-49.388 13.307"/><path d="m661.641 565.727 48.049-17.457-.269-.733-48.051 17.457"/><path d="m663.59 570.178 46.136-21.923-.34-.704-46.135 21.924"/><path d="m665.567 573.77 44.186-25.53-.395-.673-44.185 25.529"/><path d="m668.144 577.626 41.64-29.405-.455-.635-41.641 29.405"/><path d="m670.812 580.943 38.998-32.742-.508-.596-39 32.743"/><path d="m673.7 583.988 36.133-35.809-.555-.551-36.132 35.809"/><path d="m701.263 597.803 8.679-49.833-.773-.133-8.68 49.833"/><path d="m705.606 598.497 4.341-50.56-.782-.068-4.341 50.563"/><path d="M709.948 598.463v-50.561h-.785v50.561"/><path d="m658.405 552.635 51.185-4.344-.068-.775-51.183 4.343"/><path d="m735.399 591.557-25.503-43.848-.68.389 25.504 43.847"/><path d="m731.24 593.715-21.327-45.975-.713.326 21.326 45.974"/><path d="m727.285 595.347-17.358-47.576-.74.264 17.36 47.577"/><path d="m722.688 596.785-12.751-48.979-.76.194 12.751 48.98"/><path d="m739.188 589.131-29.31-41.451-.643.447 29.311 41.451"/><path d="m742.733 586.402-32.877-38.75-.601.502 32.877 38.749"/><path d="m760.056 556.208-50.432-8.688-.135.767 50.432 8.689"/><path d="m759.049 560.834-49.39-13.307-.207.752 49.392 13.307"/><path d="m757.743 564.994-48.053-17.457-.269.733 48.051 17.457"/><path d="m755.862 569.475-46.136-21.924-.34.704 46.136 21.923"/><path d="m753.939 573.096-44.186-25.529-.395.673 44.186 25.53"/><path d="m751.427 576.991-41.643-29.405-.455.635 41.641 29.405"/><path d="m748.81 580.348-39-32.743-.508.596 39 32.742"/><path d="m745.968 583.437-36.135-35.809-.555.551 36.135 35.809"/><path d="m718.624 597.67-8.682-49.833-.773.133 8.682 49.833"/><path d="m714.287 598.432-4.34-50.563-.782.068 4.34 50.56"/><path d="m760.774 551.859-51.184-4.343-.068.775 51.186 4.344"/></g></g><path d="M144.048 87.132h-.823c0 14.416-5.919 27.462-15.497 36.915-9.579 9.45-22.807 15.296-37.428 15.297-14.621-.001-27.848-5.847-37.428-15.297-9.578-9.453-15.498-22.5-15.498-36.915 0-14.418 5.92-27.464 15.498-36.917 9.58-9.451 22.807-15.296 37.428-15.297 14.621 0 27.849 5.846 37.428 15.297 9.578 9.453 15.497 22.499 15.497 36.917h1.646c.001-14.875-6.111-28.347-15.985-38.09-9.877-9.743-23.523-15.77-38.586-15.77-15.063 0-28.711 6.027-38.586 15.77-9.875 9.743-15.986 23.215-15.986 38.09 0 14.872 6.111 28.345 15.986 38.088 9.875 9.744 23.522 15.77 38.586 15.77 15.062 0 28.709-6.025 38.586-15.77 9.874-9.743 15.986-23.216 15.985-38.088h-.823z"/><path d="M141.254 87.132h-.55c0 13.78-5.658 26.25-14.812 35.284-9.155 9.032-21.798 14.619-35.769 14.619-13.972 0-26.615-5.587-35.771-14.62-9.152-9.032-14.812-21.503-14.812-35.283 0-13.782 5.659-26.253 14.812-35.286 9.155-9.033 21.799-14.617 35.771-14.62 13.971.003 26.613 5.587 35.769 14.62 9.153 9.033 14.812 21.504 14.812 35.286h1.1c0-14.085-5.787-26.841-15.141-36.067-9.351-9.23-22.271-14.936-36.539-14.936s-27.189 5.707-36.541 14.936c-9.353 9.227-15.141 21.982-15.141 36.067 0 14.084 5.788 26.839 15.141 36.065 9.352 9.228 22.273 14.936 36.541 14.936 14.268 0 27.188-5.708 36.539-14.936 9.354-9.227 15.141-21.981 15.141-36.065h-.55z"/><path d="m704.796 508.306-.002-.086M738.522 524.35a.623.623 0 0 1 .083-.028M733.253 561.117l.055.07M696.203 567.488l-.054.068" style="fill:#ba2326;stroke:#fff" transform="translate(-620.193 -460.685)"/><path d="M709.053 538.783s-20.369-5.676-16.851-28.912c5.317-22.443 23.171-23.123 27.279-23.566-1.058 1.047-1.94 2.09-2.377 3.385-.859 2.326-.138 4.533 1.105 6.725 1.578 2.538 2.541 5.178 2.906 8.615a13.434 13.434 0 0 1-5.077 12.474c-2.382 1.922-5.229 2.628-7.522 4.812-1.769 1.822-2.842 3.626-3.183 6.73.07 5.899 1.695 6.684 3.72 9.737z" style="fill:#0c101a" transform="translate(-620.193 -460.685)"/><path d="M710.632 537.349s1.801-20.532 22.706-24.579c10.482-.694 18.511 1.547 24.729 8.352 2.406 3.359 4.169 7.023 5.796 10.822-1.313-.705-2.567-1.242-3.933-1.283-2.479-.135-4.375 1.197-6.107 3.031-1.965 2.25-4.203 3.945-7.385 5.301-4.435 2.051-9.523 1.55-13.414-1.199-2.535-1.711-4.045-4.228-6.805-5.779-2.26-1.158-4.303-1.656-7.367-1.071-5.623 1.792-5.894 3.578-8.22 6.405z" style="fill:#0c101a" transform="translate(-620.193 -460.685)"/><path d="M712.067 538.8s20.043-4.815 30.52 13.724c3.99 9.716 4.418 18.042-.066 26.102-2.421 3.347-5.332 6.182-8.42 8.932.254-1.469.365-2.828-.031-4.138-.656-2.388-2.525-3.769-4.814-4.828-2.76-1.147-5.076-2.731-7.373-5.316a13.434 13.434 0 0 1-3.125-13.1c.822-2.952 2.729-5.181 3.324-8.288.381-2.514.201-4.604-1.328-7.33-3.484-4.761-5.267-4.453-8.687-5.758z" style="fill:#0c101a" transform="translate(-620.193 -460.685)"/><path d="M711.669 540.889s10.252 17.879-4.602 33.143c-8.206 6.555-16.076 9.307-25.068 7.271-3.893-1.391-7.434-3.387-10.937-5.582 1.479-.168 2.817-.441 3.962-1.188 2.109-1.304 2.904-3.482 3.277-5.975.331-2.969 1.203-5.641 3.037-8.573a13.445 13.445 0 0 1 11.693-6.677c3.062-.04 5.738 1.164 8.889.86 2.518-.337 4.477-1.097 6.659-3.325 3.595-4.685 2.797-6.302 3.09-9.954z" style="fill:#0c101a" transform="translate(-620.193 -460.685)"/><path d="M709.431 540.544s-13.463 15.609-32.793 6.671c-8.909-5.562-14.116-12.072-15.188-21.229.016-4.134.725-8.138 1.629-12.172.649 1.339 1.354 2.513 2.441 3.343 1.928 1.56 4.25 1.586 6.727 1.107 2.91-.678 5.716-.743 9.088.016 4.799.93 8.631 4.309 10.186 8.812 1.055 2.875.807 5.797 2.141 8.67 1.156 2.26 2.522 3.855 5.352 5.174 5.611 1.83 6.874.543 10.417-.392z" style="fill:#0c101a" transform="translate(-620.193 -460.685)"/><path d="M679.202 534.791c-.031-.012-.059-.018-.087-.03" style="fill:#ba2326;stroke:#fff" transform="translate(-620.193 -460.685)"/><path d="M712.273 544.082c1.974 9.627-8.376 22.35-16.142 23.354M706.616 542.17c-8.426 5.064-23.863-.474-27.393-7.467M715.301 539.118c9.798.807 19.103 14.315 17.884 22.053" style="fill:none;stroke:#fff" transform="translate(-620.193 -460.685)"/><path style="fill:#fff" d="m731.493 569.258.27-2.446-2.186-.896 2.349-.613.263-2.444 1.183 2.069 2.344-.621-1.613 1.894 1.18 2.065-2.176-.903z" transform="translate(-620.193 -460.685)"/><path d="M777.892 547.7h-2.016a64.188 64.188 0 0 1-5.183 25.349c-5.008 11.687-13.382 21.639-23.921 28.666-10.542 7.027-23.24 11.131-36.93 11.133-18.25-.002-34.75-7.297-46.704-19.091a65.236 65.236 0 0 1-14.146-20.708 64.154 64.154 0 0 1-5.185-25.349 64.154 64.154 0 0 1 5.185-25.349c5.008-11.686 13.379-21.638 23.922-28.666 10.541-7.027 23.239-11.131 36.928-11.132 18.25.001 34.75 7.296 46.703 19.091a65.185 65.185 0 0 1 14.147 20.707 64.188 64.188 0 0 1 5.183 25.349h4.031a68.206 68.206 0 0 0-5.511-26.935c-5.323-12.418-14.207-22.976-25.388-30.431-11.18-7.456-24.666-11.81-39.164-11.808-19.334-.002-36.857 7.738-49.533 20.251-6.337 6.257-11.471 13.708-15.018 21.987a68.186 68.186 0 0 0-5.512 26.935 68.186 68.186 0 0 0 5.512 26.935c5.32 12.419 14.206 22.977 25.387 30.432 11.18 7.455 24.666 11.809 39.164 11.808 19.332.001 36.856-7.737 49.531-20.251a69.238 69.238 0 0 0 15.021-21.988 68.199 68.199 0 0 0 5.511-26.935h-2.014z" style="fill:#0c101a" transform="translate(-620.193 -460.685)"/><path d="M704.794 507.873s-3.588 2.958-4.164 10.631c-.577 7.672 1.207 10.924 1.207 10.924l.723-.641s-1.615-3.953-1.248-10.283c.367-6.331 3.482-10.631 3.482-10.631zM738.416 525.561s-4.093-2.204-11.415.158c-7.323 2.36-9.66 5.24-9.66 5.24l.866.428s3.05-2.988 9.052-5.038c5.999-2.049 11.157-.788 11.157-.788zM708.983 502.957s.789-.082.922-.843c.17-.972-1.012-1.489-1.012-1.489l.416-.918-.553-.248-.416.918-.402-.18.412-.92-.559-.25-.414.92-1.15-.517-.26.579.477.217s.119.053.154.14c.042.101-.008.181-.008.181l-.598 1.346-.563 1.25s-.042.098-.129.145c-.106.059-.17.023-.17.023l-.489-.22-.266.594 1.1.493-.422.944.564.253.42-.945.406.182-.42.945.547.246.424-.944s1.312.806 2.078-.183c.808-1.041-.089-1.719-.089-1.719zm-1.336-2.139.613.275s.683.307.428.871c-.238.523-.782.33-.782.33l-.767-.344.508-1.132zm.522 3.049c-.408.662-1.146.218-1.146.218l-.699-.313.557-1.242.699.312c-.001 0 .978.395.589 1.025zM743.476 528.134s.134.781.903.863c.98.104 1.416-1.11 1.416-1.11l.946.354.21-.567-.943-.354.151-.414.946.352.212-.574-.945-.353.438-1.183-.595-.221-.185.49s-.045.124-.129.165c-.098.048-.182.003-.182.003l-1.382-.508-1.285-.478s-.1-.036-.152-.119c-.065-.101-.035-.168-.035-.168l.187-.502-.61-.228-.418 1.131-.971-.356-.215.578.972.358-.154.415-.972-.355-.209.563.971.358s-.716 1.364.321 2.063c1.09.735 1.709-.203 1.709-.203zm2.045-1.476-.234.628s-.261.703-.841.486c-.538-.203-.381-.758-.381-.758l.291-.788 1.165.432zm-3.007.722c-.688-.361-.294-1.129-.294-1.129l.267-.717 1.276.473-.266.718s-.329 1.003-.983.655z" style="fill:#f1f2f2" transform="translate(-620.193 -460.685)"/><path d="M735.015 563.893s-.621-4.609-6.834-9.146c-6.214-4.537-9.917-4.738-9.917-4.738l.162.952s4.21.714 9.396 4.365c5.183 3.651 7.193 8.567 7.193 8.567z" style="fill:#fff" transform="translate(-620.193 -460.685)"/><path d="M735.138 570.137s-.554.568-.169 1.238c.491.855 1.73.495 1.73.495l.269.972.582-.164-.266-.971.423-.119.272.97.59-.165-.271-.971 1.215-.341-.172-.611-.504.14s-.126.035-.209-.009c-.097-.05-.11-.146-.11-.146l-.401-1.415-.367-1.32s-.029-.103.006-.193c.043-.113.117-.128.117-.128l.515-.145-.175-.625-1.16.324-.281-.994-.596.166.283.996-.429.119-.282-.995-.579.163.28.994s-1.525.222-1.48 1.473c.046 1.314 1.169 1.262 1.169 1.262zm2.394.787-.646.182s-.721.202-.886-.396c-.153-.555.39-.753.39-.753l.809-.228.333 1.195zm-2.351-2.008c-.11-.77.742-.901.742-.901l.735-.207.368 1.312-.736.207c0-.001-1.006.323-1.109-.411z" style="fill:#f1f2f2" transform="translate(-620.193 -460.685)"/><path d="M691.938 566.838s4.187-2.022 6.568-9.338c2.383-7.316 1.423-10.898 1.423-10.898l-.854.451s.63 4.223-1.23 10.285c-1.86 6.062-5.907 9.5-5.907 9.5zM686.394 568.542s-.712-.351-1.229.224c-.659.732.067 1.8.067 1.8l-.842.556.338.504.84-.557.246.367-.838.561.34.508.84-.559.7 1.049.528-.353-.289-.437s-.074-.109-.058-.202c.019-.106.104-.149.104-.149l1.222-.82 1.141-.76s.089-.061.186-.055c.121.006.156.071.156.071l.298.444.541-.361-.67-1.001.858-.577-.344-.513-.857.577-.246-.369.857-.578-.334-.499-.859.575s-.685-1.381-1.859-.95c-1.236.453-.837 1.504-.837 1.504zm-.004 2.52-.373-.559s-.416-.621.1-.964c.48-.319.838.136.838.136l.467.697-1.032.69zm1.177-2.859c.697-.344 1.087.425 1.087.425l.425.636-1.132.758-.425-.636s-.62-.855.045-1.183z" style="fill:#fff" transform="translate(-620.193 -460.685)"/><path d="M673.739 527.559s.131-.783-.567-1.114c-.892-.423-1.705.579-1.705.579l-.774-.646-.385.467.772.646-.28.34-.777-.643-.391.471.777.645-.805.972.488.405.336-.402s.082-.102.177-.111a.213.213 0 0 1 .173.056l1.137.936 1.053.876s.084.066.105.162c.029.118-.023.171-.023.171l-.341.411.501.416.768-.928.799.656.394-.476-.798-.656.283-.343.799.656.383-.463-.797-.658s1.127-1.05.378-2.053c-.789-1.054-1.68-.372-1.68-.372zm-2.419.716.429-.517s.477-.577.953-.181c.443.369.109.842.109.842l-.535.646-.956-.79zm3.078.312c.528.569-.097 1.163-.097 1.163l-.488.59-1.049-.869.488-.589c.001 0 .643-.839 1.146-.295z" style="fill:#f1f2f2" transform="translate(-620.193 -460.685)"/><path style="fill:#0c101a" d="M631.683 528.213h155.42v41.722l-14.959 5.473.332-2.326 10.738-3.59H627.196v-41.279l18.758-7.282 1.366 1.364z" transform="translate(-620.193 -460.685)"/><path d="M658.311 542.075v.875c0 2.521-.77 4.131-2.485 4.936 2.065.806 2.871 2.66 2.871 5.251v1.995c0 3.78-1.995 5.811-5.846 5.811h-6.056V536.44h5.811c3.99-.001 5.705 1.855 5.705 5.635zm-7.665-2.135v6.476h1.505c1.435 0 2.311-.63 2.311-2.591v-1.365c0-1.75-.596-2.52-1.961-2.52h-1.855zm0 9.976v7.526h2.205c1.295 0 1.995-.596 1.995-2.416v-2.135c0-2.275-.735-2.976-2.485-2.976h-1.715zM661.88 536.439h3.851v24.503h-3.851v-24.503zM668.284 536.439h11.901v3.501h-4.025v21.002h-3.851V539.94h-4.025v-3.501zM693.905 551.807v3.255c0 3.921-1.96 6.161-5.74 6.161-3.781 0-5.741-2.24-5.741-6.161V542.32c0-3.92 1.96-6.16 5.741-6.16 3.78 0 5.74 2.24 5.74 6.16v2.38h-3.641v-2.625c0-1.75-.77-2.415-1.995-2.415s-1.995.665-1.995 2.415v13.231c0 1.75.771 2.381 1.995 2.381 1.226 0 1.995-.631 1.995-2.381v-3.5h3.641zM696.809 542.32c0-3.92 2.065-6.16 5.846-6.16s5.846 2.24 5.846 6.16v12.741c0 3.921-2.065 6.161-5.846 6.161s-5.846-2.24-5.846-6.161V542.32zm3.85 12.987c0 1.75.771 2.415 1.995 2.415 1.226 0 1.995-.665 1.995-2.415v-13.231c0-1.75-.77-2.415-1.995-2.415s-1.995.665-1.995 2.415v13.231zM711.859 536.439h3.851v24.503h-3.851v-24.503zM722.813 543.195v17.747h-3.465v-24.503h4.83l3.956 14.667v-14.667h3.43v24.503h-3.955l-4.796-17.747zM745.354 560.942h-3.851v-24.503h3.851v10.501h4.375v-10.501h3.921v24.503h-3.921v-10.501h-4.375v10.501zM762.362 551.177l-1.189 2.24v7.525h-3.851v-24.503h3.851v10.677l5.04-10.677h3.851l-5.355 10.922 5.355 13.581h-3.955l-3.747-9.765z" style="fill:#fff" transform="translate(-620.193 -460.685)"/><path d="M42.458 117.904c.524.79.355 1.355-.393 1.85l-.24.16c-.537.355-.973.426-1.404.074.19.584-.077 1.033-.637 1.404l-.428.285c-.763.504-1.438.418-1.962-.373l-.775-1.17 5.084-3.371.755 1.14zm-4.547 3.058c.275.414.617.457 1.089.145l.451-.3c.566-.374.605-.724.283-1.21l-.328-.494-1.896 1.256.401.603zm2.299-1.765c.299.449.599.586 1.128.234l.299-.197c.45-.3.565-.596.297-1.002l-.371-.561-1.641 1.09.288.436zM44.46 120.722l-4.888 3.65-.405-.545 4.886-3.65.407.545zM41.207 126.45l4.213-3.5-.718-.864.476-.395 1.87 2.252-.476.395-.718-.865-4.215 3.5-.432-.522zM48.616 127.769l-.396.379-.445-.467.422-.404c.397-.38.487-.764.145-1.123-.337-.354-.732-.29-1.131.09l-2.333 2.223c-.396.379-.479.77-.144 1.125.343.359.732.289 1.13-.09l.573-.547.445.467-.549.52c-.668.64-1.41.745-2.06.063-.644-.674-.503-1.41.167-2.05l2.282-2.173c.669-.64 1.411-.744 2.055-.068.647.682.507 1.416-.161 2.055zM49.594 128.726c.626-.69 1.372-.824 2.062-.197.695.633.633 1.389.006 2.078l-2.121 2.334c-.622.682-1.373.822-2.07.189-.689-.627-.62-1.39.001-2.07l2.122-2.334zm-1.648 2.81c-.375.413-.418.81-.058 1.138.368.334.752.248 1.127-.164l2.168-2.385c.369-.406.425-.805.057-1.14-.36-.327-.758-.24-1.126.167l-2.168 2.385zM54.252 130.828l-3.857 4.729-.527-.43 3.857-4.73.527.43zM52.267 137.015l-.492-.36 3.585-4.935.697.506-1.448 4.398 2.591-3.568.486.354-3.584 4.938-.571-.416 1.635-4.908-2.899 3.99zM60.852 138.933a.915.915 0 1 1-1.588-.911.915.915 0 0 1 1.588.91zM64.311 142.72l-.711 1.029-.574-.254 3.533-5.107.9.396-1.396 6.053-.622-.273.281-1.221-1.411-.623zm.317-.498 1.243.549.793-3.498-2.036 2.949zM71.663 141.972l-.057.156-.605-.22.067-.187c.186-.518.098-.891-.362-1.057-.459-.164-.765.068-.946.578-.462 1.287 1.421 2.1.842 3.715-.311.869-.932 1.285-1.809.97-.878-.313-1.085-1.026-.773-1.895l.118-.328.598.215-.129.36c-.186.517-.081.897.379 1.062.459.164.781-.062.966-.578.458-1.28-1.416-2.09-.838-3.705.317-.887.925-1.287 1.785-.98.869.312 1.077 1.025.764 1.894zM75.538 143.113l-.045.16-.621-.176.054-.193c.149-.53.037-.895-.432-1.027-.471-.133-.76.119-.907.64-.372 1.317 1.562 1.999 1.097 3.65-.252.89-.844 1.349-1.741 1.095-.897-.254-1.152-.951-.901-1.84l.096-.336.611.174-.104.367c-.149.529-.02.902.449 1.033.471.135.776-.115.926-.643.37-1.31-1.558-1.99-1.09-3.641.256-.906.834-1.35 1.715-1.102.89.253 1.144.95.893 1.839zM76.838 143.445c.19-.914.767-1.406 1.68-1.217.921.193 1.25.877 1.06 1.79l-.647 3.089c-.19.904-.768 1.406-1.688 1.213-.913-.191-1.24-.883-1.05-1.787l.645-3.088zm.003 3.26c-.114.547.05.91.527 1.01.485.102.775-.166.889-.713l.661-3.156c.113-.54-.041-.908-.527-1.012-.479-.1-.775.178-.89.715l-.66 3.156zM83.67 144.619l-.073.545-.64-.086.078-.58c.074-.543-.098-.902-.59-.97-.483-.063-.753.233-.827.778l-.433 3.197c-.075.545.105.902.591.969.49.066.752-.232.825-.777l.107-.785.64.086-.103.752c-.124.916-.638 1.463-1.571 1.336-.925-.125-1.274-.79-1.151-1.705l.425-3.13c.124-.913.639-1.46 1.562-1.335.935.127 1.285.79 1.16 1.705zM85.9 143.337l-.497 6.08-.678-.057.497-6.08.678.057zM87.898 148.33l-.265 1.223-.629-.016 1.314-6.07.985.023 1.021 6.127-.679-.016-.206-1.234-1.541-.037zm.099-.582 1.36.033-.604-3.537-.756 3.504zM92.872 149.539l-.264-5.48-1.125.055-.029-.62 2.927-.14.03.617-1.124.055.265 5.48-.68.033zM96.246 143.173l.607 6.068-.677.068-.608-6.068.678-.068zM97.842 144.476c-.143-.922.222-1.588 1.144-1.73.931-.145 1.479.379 1.623 1.3l.483 3.12c.142.914-.222 1.588-1.152 1.732-.922.143-1.473-.39-1.614-1.303l-.484-3.12zm1.153 3.05c.086.552.368.835.851.76.491-.075.666-.43.58-.981l-.494-3.188c-.084-.543-.358-.836-.851-.76-.482.076-.664.439-.58.982l.494 3.188zM103.642 148.154l-.593.137-1.365-5.947.84-.191 2.363 3.98-.987-4.297.586-.135 1.365 5.945-.688.158-2.625-4.46 1.104 4.81zM110.749 142.955a.913.913 0 1 1-1.732.592.913.913 0 0 1 1.732-.592zM115.234 141.474l1.149 2.492-.617.285-2.554-5.541.616-.285 1.149 2.494 1.361-.627-1.149-2.494.618-.283 2.553 5.539-.616.285-1.149-2.494-1.361.629zM117.718 138.197c-.448-.816-.334-1.564.481-2.014.825-.453 1.519-.15 1.968.666l1.521 2.764c.445.809.334 1.566-.49 2.02-.817.449-1.515.137-1.961-.672l-1.519-2.764zm2.124 2.47c.268.489.63.657 1.057.423.436-.238.479-.631.211-1.12l-1.554-2.823c-.265-.48-.623-.66-1.058-.422-.428.236-.474.639-.209 1.119l1.553 2.824zM124.411 139.673l-.512.332-3.308-5.127.726-.467 3.575 2.939-2.389-3.705.506-.326 3.305 5.125-.593.383-3.983-3.3 2.673 4.146zM127.188 132.074l.314.418-.517.389-.334-.447c-.331-.44-.703-.574-1.102-.275-.392.293-.372.693-.043 1.133l1.937 2.582c.33.439.711.566 1.102.273.397-.3.373-.693.042-1.133l-.732-.977-.503.377-.366-.488 1.019-.764 1.079 1.436c.555.74.572 1.49-.182 2.055-.746.56-1.461.334-2.016-.404l-1.896-2.525c-.554-.74-.572-1.488.174-2.05.754-.567 1.469-.34 2.024.4zM132.084 130.48l.148.684 1.398 1.5-.498.463-4.163-4.465.498-.463 2.01 2.154-.823-3.262.505-.47.767 3.087 3.433 1.344-.509.475-2.766-1.047zM133.037 126.82c-.684-.637-.808-1.385-.171-2.066.642-.69 1.396-.617 2.079.02l2.309 2.152c.676.63.807 1.385.164 2.074-.636.682-1.397.604-2.073-.027l-2.308-2.153zm2.791 1.685c.408.38.805.428 1.137.07.34-.361.259-.748-.15-1.13l-2.358-2.198c-.401-.375-.798-.436-1.138-.072-.333.357-.251.756.151 1.129l2.358 2.2zM139.87 126.13l-.383.473-4.738-3.838.541-.67 4.314 1.678-3.425-2.773.379-.467 4.736 3.838-.443.547-4.812-1.891 3.831 3.103zM140.134 118.058l.429.299-.37.529-.457-.32c-.449-.314-.845-.326-1.13.082-.279.398-.138.773.312 1.088l2.641 1.848c.451.314.852.318 1.132-.08.285-.408.139-.775-.312-1.09l-.999-.7-.358.515-.501-.35.729-1.043 1.47 1.029c.758.529 1.007 1.236.468 2.008-.533.764-1.283.77-2.04.242l-2.584-1.81c-.758-.528-1.008-1.235-.473-2 .537-.77 1.286-.776 2.043-.247z"/></svg>